# xmcd CD database file
#
# Track frame offsets:
#	150
#	20247
#	38160
#	51342
#	68370
#	83357
#	96677
#	115262
#	133412
#	154950
#	173040
#	195117
#	211530
#	220242
#	236472
#
# Disc length: 3360 seconds
#
# Revision: 6
# Processed by: cddbd v1.5.2PL0 Copyright (c) Steve Scherf et al.
# Submitted via: CDex 1.51
#
DISCID=c90d1e0f
DTITLE=Enya - A Box of Dreams, Disc I: Oceans
DYEAR=1997
DGENRE=New Age
TTITLE0=Orinoco Flow
TTITLE1=Caribbean Blue
TTITLE2=Book of Days
TTITLE3=Anywhere Is
TTITLE4=Only If ...
TTITLE5=The Celts
TTITLE6=Cursum Perficio
TTITLE7=I Want Tomorrow
TTITLE8=China Roses
TTITLE9=Storms In Africa
TTITLE10=Pax Deorum
TTITLE11=The Longships
TTITLE12=Ebudae
TTITLE13=On My Way Home
TTITLE14=Boadicea
EXTD=YEAR: 1997
EXTT0=
EXTT1=
EXTT2=
EXTT3=
EXTT4=
EXTT5=
EXTT6=
EXTT7=
EXTT8=
EXTT9=
EXTT10=
EXTT11=
EXTT12=
EXTT13=
EXTT14=
PLAYORDER=
